# xmcd CD database file
# Copyright (C) 1993-1998 Ti Kan
#
# Track frame offsets:
#	200
#	14012
#	24647
#	36327
#	47342
#	55105
#	69867
#	78127
#	92590
#	101972
#	114482
#	126947
#	140757
#	162462
#	176220
#	182932
#	194180
#	215552
#	231730
#	250852
#	263122
#	283422
#	304565
#
# Disc length: 4305 seconds
#
# Revision: 1
# Processed by: cddbd v1.4b41PL1 Copyright (c) Steve Scherf et al.
# Submitted via: EasyCD2 v3.00 - Copyright (c) 1997 Greg Leichner
#
DISCID=6110cf17
DTITLE=Bill and Gloria Gaither - The Sweetest Song I Know
DYEAR=1900
DGENRE=
TTITLE0=The Sweetest Song I Know
TTITLE1=Look On The Brighter Side
TTITLE2=An Old Convention Song
TTITLE3=Goodby World Goodby
TTITLE4=Won't We Be Happy?
TTITLE5=He Will Surely Make It All Right
TTITLE6=I've Got That Old Time Religion
TTITLE7=I'll Meet You By The River
TTITLE8=Angels Walking Around
TTITLE9=When I Got Saved
TTITLE10=Heavenly Love
TTITLE11=It Won't Rain Always
TTITLE12=My Home
TTITLE13=Jesus Is Coming Soon
TTITLE14=Heaven Is Sounding Sweeter
TTITLE15=Down On My Knees
TTITLE16=You've Got To Walk That Lonesome Road
TTITLE17=I'd Rather Have Jesus
TTITLE18=Gone
TTITLE19=Lift Me Up Above The Shadows
TTITLE20=Sheltered In The Arms of God
TTITLE21=No One Cared So Much
TTITLE22=I Won't Have To Cross Jordan Alone
EXTD=1995 Gaither Music Co.  Chapel  CMD5340
EXTT0=
EXTT1=
EXTT2=
EXTT3=
EXTT4=
EXTT5=
EXTT6=
EXTT7=
EXTT8=
EXTT9=
EXTT10=
EXTT11=
EXTT12=
EXTT13=
EXTT14=
EXTT15=
EXTT16=
EXTT17=
EXTT18=
EXTT19=
EXTT20=
EXTT21=
EXTT22=
PLAYORDER=
